<?xml version="1.0" encoding="UTF-8"?>
<svg width="14px" height="9px" viewBox="0 0 14 9" version="1.1" xmlns="http://www.w3.org/2000/svg" xmlns:xlink="http://www.w3.org/1999/xlink">
    <!-- Generator: sketchtool 41.2 (35397) - http://www.bohemiancoding.com/sketch -->
    <title>0E3B9CEC-30D6-40DE-9ECC-9D991BC92637</title>
    <desc>Created with sketchtool.</desc>
    <defs>
        <polygon id="path-1" points="6.85672828 1.22753118e-15 1.33091945e-15 1.22753118e-15 0 8.19826168 6.85672828 8.19826168 6.85672828 0"></polygon>
        <polygon id="path-3" points="5.92577421 6.22932551 5.92577421 1.22753118e-15 0 0 0 6.22932551 5.92577421 6.22932551"></polygon>
        <polygon id="path-5" points="0 8.19826624 13.4372833 8.19826624 13.4372833 0 0 0"></polygon>
    </defs>
    <g id="Page-1" stroke="none" stroke-width="1" fill="none" fill-rule="evenodd">
        <g id="Desktop-HD-(Home)" transform="translate(-410.000000, -698.000000)">
            <rect id="Background" fill="#FFFFFF" x="0" y="0" width="1440" height="1024"></rect>
            <g id="Page-1" transform="translate(410.000000, 698.000000)">
                <g id="Group-3" transform="translate(0.000000, 0.013778)">
                    <mask id="mask-2" fill="white">
                        <use xlink:href="#path-1"></use>
                    </mask>
                    <g id="Clip-2"></g>
                    <path d="M1.93172422,3.21563067 C1.94849611,3.22327528 1.95502832,3.22888997 1.96153846,3.22884678 C2.6264114,3.22573711 3.29146088,3.22893316 3.95611313,3.21498282 C4.18412253,3.21021033 4.40606315,3.14251014 4.60019775,3.01691387 C4.87975863,2.83605611 4.92866193,2.55573197 4.92049667,2.25811028 C4.90873428,1.82968793 4.72117602,1.59799564 4.29499353,1.50703768 C4.08803727,1.46287599 3.87423983,1.43281581 3.66284785,1.42843204 C3.10458674,1.41683554 2.54597254,1.42266618 1.98749075,1.42206152 C1.97014509,1.42206152 1.95279943,1.42758983 1.93172422,1.43117459 L1.93172422,3.21563067 Z M1.93348969,6.77525698 C2.1534221,6.77525698 2.36602784,6.77752445 2.57856738,6.77480348 C3.07836963,6.76838978 3.57870152,6.77085161 4.07773138,6.74735629 C4.36091146,6.73403221 4.62734173,6.64216726 4.82377142,6.42222262 C5.08633974,6.12818569 5.12537851,5.77698691 5.07817448,5.40866332 C5.03251522,5.05245451 4.82330799,4.82188515 4.48422897,4.6987939 C4.239227,4.60986587 3.98272747,4.59230917 3.72497003,4.59133739 C3.16225114,4.58922109 2.59953224,4.59053838 2.03681334,4.59075433 C2.00437298,4.59075433 1.97193262,4.5934753 1.93348969,4.5951813 L1.93348969,6.77525698 Z M0,8.19618355 L0,0.000724650853 L0.119323153,0.000724650853 C1.40641105,0.00074624581 2.69349895,-0.00162919945 3.98058684,0.00210672809 C4.40438596,0.00333764064 4.82383763,0.0463547947 5.22676016,0.189335004 C5.91127386,0.432213484 6.37331729,0.876767267 6.52768487,1.58730613 C6.64616942,2.13272996 6.62604316,2.66726993 6.32688565,3.16363001 C6.18099229,3.40570948 5.96545147,3.57708705 5.71950056,3.71510042 C5.676004,3.73950273 5.63327982,3.76517913 5.57934496,3.7965782 C5.70049978,3.85475501 5.81090735,3.90029877 5.91389998,3.95845399 C6.55948525,4.32295527 6.82573896,4.90236956 6.85418497,5.60096641 C6.88788322,6.42867952 6.58715886,7.12064672 5.92533135,7.64918329 C5.5981692,7.91046067 5.21479916,8.05795423 4.80090869,8.10915587 C4.42268056,8.15590895 4.04025945,8.18899243 3.65933899,8.19238283 C2.48636613,8.20283479 1.31321673,8.19618355 0.140155603,8.19618355 L0,8.19618355 L0,8.19618355 Z" id="Fill-1" fill="#303030" mask="url(#mask-2)"></path>
                </g>
                <g id="Group-6" transform="translate(7.503213, 1.914134)">
                    <mask id="mask-4" fill="white">
                        <use xlink:href="#path-3"></use>
                    </mask>
                    <g id="Clip-5"></g>
                    <path d="M4.30971456,2.50694094 C4.26434219,1.71427645 3.73479191,1.27866298 2.97017038,1.26866452 C2.14404457,1.25784544 1.72203298,1.77988193 1.62808835,2.50694094 L4.30971456,2.50694094 Z M1.58366491,3.52112649 C1.59668519,4.36415042 2.06910072,4.90387318 2.88745849,4.9744239 C3.15137297,4.99716339 3.40831388,4.97643223 3.6550151,4.87685789 C3.8716152,4.7894415 4.05319295,4.65639497 4.16616044,4.45318643 C4.22720129,4.34344086 4.30424163,4.31078928 4.42892737,4.31301356 C4.85903802,4.32067977 5.28936934,4.31597207 5.7196124,4.31597207 L5.85414059,4.31597207 C5.83995069,4.5290711 5.7622483,4.70796373 5.66102113,4.87344588 C5.16922967,5.67757729 4.43541545,6.10738172 3.48864239,6.2038248 C2.97478265,6.25617097 2.46701375,6.23526705 1.97480299,6.07183642 C1.301831,5.848415 0.727482117,5.49164471 0.371719486,4.8652182 C0.182175087,4.53146815 0.0817203077,4.16642699 0.0384002875,3.78883917 C-0.0246708373,3.23916114 -0.015115275,2.69118911 0.105112677,2.14744969 C0.347819546,1.04982122 1.20197206,0.233164738 2.33155869,0.0559565217 C3.1265903,-0.0687543543 3.9018708,0.0016020152 4.6165077,0.403419378 C5.06358884,0.654806271 5.37821621,1.02999705 5.60812348,1.47532825 C5.80472973,1.85619851 5.9050521,2.26373853 5.92076471,2.68883526 C5.93082784,2.96136362 5.92264051,3.23453982 5.92264051,3.52112649 L1.58366491,3.52112649 Z" id="Fill-4" fill="#303030" mask="url(#mask-4)"></path>
                </g>
                <mask id="mask-6" fill="white">
                    <use xlink:href="#path-5"></use>
                </mask>
                <g id="Clip-8"></g>
                <polygon id="Fill-7" fill="#303030" mask="url(#mask-6)" points="9 0.804692878 12.3637124 0.804692878 12.3637124 -2.22044605e-16 9 -2.22044605e-16"></polygon>
            </g>
        </g>
    </g>
</svg>