<?xml version="1.0" encoding="UTF-8"?>
<svg width="13px" height="13px" viewBox="0 0 13 13" version="1.1" xmlns="http://www.w3.org/2000/svg" xmlns:xlink="http://www.w3.org/1999/xlink">
    <!-- Generator: sketchtool 41.2 (35397) - http://www.bohemiancoding.com/sketch -->
    <title>6A579D9D-DC87-48C9-B0CE-1B9F650224C6</title>
    <desc>Created with sketchtool.</desc>
    <defs>
        <polygon id="path-1" points="12.9999898 0 0 0 0 12.9999898 12.9999898 12.9999898"></polygon>
    </defs>
    <g id="Page-1" stroke="none" stroke-width="1" fill="none" fill-rule="evenodd">
        <g id="Desktop-HD-(Home)" transform="translate(-410.000000, -671.000000)">
            <rect id="Background" fill="#FFFFFF" x="0" y="0" width="1440" height="1024"></rect>
            <g id="Page-1" transform="translate(410.000000, 671.000000)">
                <mask id="mask-2" fill="white">
                    <use xlink:href="#path-1"></use>
                </mask>
                <g id="Clip-2"></g>
                <path d="M9.61150938,11.0244977 C9.74638438,10.9213102 9.86617734,10.8362516 9.97870859,10.742484 C10.9819938,9.90649766 11.6176988,8.85001914 11.8872711,7.57081406 C11.9160895,7.43403477 11.8795016,7.39323203 11.7530563,7.36078281 C10.894523,7.14054453 10.0228629,7.06439805 9.13980234,7.11182773 C8.95181016,7.1219332 8.7650875,7.15496641 8.56028672,7.17951914 C9.01163047,8.43554258 9.36400156,9.70040195 9.61150938,11.0244977 M10.778818,3.08256406 C9.94308555,4.05934141 8.90014023,4.71975156 7.74270859,5.2141832 C7.88837461,5.53989414 8.02990195,5.85070078 8.16541172,6.16414805 C8.19263047,6.22709141 8.22243906,6.24019297 8.28875938,6.23364219 C8.5283707,6.21002891 8.76854063,6.18791367 9.00904063,6.17854453 C9.86884336,6.14497813 10.7228824,6.20883555 11.5721988,6.34299961 C11.7066422,6.36422617 11.8413141,6.38387852 11.9855582,6.40571445 C11.9470914,5.15591172 11.5490934,4.05898594 10.778818,3.08256406 M7.29385313,4.3177418 C8.40575938,3.9415543 9.6891793,3.03183359 10.1001773,2.37898984 C9.20322813,1.60401719 8.16228867,1.15950352 6.98441758,1.05088242 C6.41414414,0.998298437 5.84354063,1.02409531 5.28720664,1.17031992 C5.63719102,1.695525 5.98732773,2.20336289 6.31870078,2.72318516 C6.6520543,3.24615586 6.9667457,3.78108555 7.29385313,4.3177418 M6.14533359,4.68293516 C5.52742734,3.59888242 4.85856211,2.56662656 4.13729063,1.55564805 C2.5586793,2.36713242 1.55917734,3.61244102 1.13241172,5.34073008 C2.83673203,5.33212266 4.49138828,5.10101719 6.14533359,4.68293516 M1.01320273,6.34701133 C1.0029957,7.80727695 1.4553043,9.05200156 2.38736875,10.130316 C3.54716172,8.39326719 5.04013047,7.09981797 7.05680625,6.46286875 C6.92601914,6.19129062 6.79998008,5.93362656 6.67825742,5.67390586 C6.64839805,5.61017539 6.61203867,5.60469102 6.54825742,5.61923984 C5.87009922,5.77414805 5.19415,5.94081211 4.51167539,6.07413828 C3.71067734,6.2306207 2.89835508,6.3110582 2.0828082,6.34459922 C1.73292539,6.3589957 1.38195078,6.34701133 1.01320273,6.34701133 M7.4613043,7.44447031 C5.64135508,8.10797812 4.14889414,9.154275 3.14873203,10.8424977 C3.17734727,10.8648414 3.19037266,10.8755055 3.20388047,10.885484 C3.97941172,11.4596422 4.84094102,11.8177008 5.80164609,11.9400328 C6.73531016,12.0589371 7.63710898,11.9472184 8.51333945,11.6077457 C8.58758164,11.5789781 8.62013242,11.5506422 8.6028668,11.4630445 C8.40042734,10.4355875 8.14443906,9.42229844 7.80737852,8.4303375 C7.69639609,8.10376328 7.57906602,7.77934727 7.4613043,7.44447031 M12.9999898,6.06834922 L12.9999898,6.93163047 C12.9917633,6.96831992 12.9816832,7.0046793 12.9755387,7.04169883 C12.9177242,7.39084531 12.8862652,7.74666953 12.7988199,8.08819883 C12.3886852,9.68981406 11.4872672,10.9544195 10.1243238,11.8851891 C9.30311484,12.4459918 8.39481602,12.7935641 7.40714609,12.9261285 C7.1983082,12.9541598 6.98860703,12.9755387 6.77928672,12.9999898 L6.22069297,12.9999898 C6.16676328,12.9915094 6.11296055,12.9818102 6.05882773,12.9747516 C5.77026328,12.937148 5.47768711,12.9190191 5.19364219,12.8598082 C3.94259531,12.5989703 2.85455625,12.0232379 1.94422617,11.124359 C0.962878516,10.1553512 0.342382422,8.99215586 0.101907813,7.63124375 C0.0609019531,7.399275 0.0336070313,7.16489414 -1.01562473e-05,6.93163047 L-1.01562473e-05,6.06834922 C0.00824179688,6.03168516 0.018321875,5.99532578 0.0244410156,5.95830625 C0.0822808594,5.60915977 0.113765234,5.25333555 0.201185156,4.91180625 C0.611142188,3.31008945 1.51301719,2.04581406 2.87565586,1.11479062 C3.69678867,0.553759375 4.60539219,0.206923437 5.59285898,0.0738765625 C5.80167148,0.04574375 6.01139805,0.0244410156 6.22069297,-1.01562509e-05 L6.77928672,-1.01562509e-05 C6.83745664,0.00864804687 6.89555039,0.0179664062 6.95382188,0.0258121094 C7.2421832,0.064634375 7.53402305,0.0863179687 7.81837266,0.144589453 C8.93797227,0.37399375 9.93064414,0.867460547 10.7861051,1.62575156 C11.9613355,2.66750352 12.6781129,3.96476133 12.9244781,5.51828672 C12.9534488,5.70104844 12.9750055,5.88497812 12.9999898,6.06834922" id="Fill-1" fill="#303030" mask="url(#mask-2)"></path>
            </g>
        </g>
    </g>
</svg>