<?xml version="1.0" encoding="UTF-8"?>
<svg width="13px" height="13px" viewBox="0 0 13 13" version="1.1" xmlns="http://www.w3.org/2000/svg" xmlns:xlink="http://www.w3.org/1999/xlink">
    <!-- Generator: sketchtool 41.2 (35397) - http://www.bohemiancoding.com/sketch -->
    <title>BC88E748-9C99-46E7-BE27-32D9ED33912E</title>
    <desc>Created with sketchtool.</desc>
    <defs>
        <polygon id="path-1" points="6.49999705 13 0 13 0 0 6.49999705 0 12.9999941 0 12.9999941 13 6.49999705 13"></polygon>
        <path d="M0.0295454545,0.797727273 C0.0295454545,1.222 0.373454545,1.56590909 0.797727273,1.56590909 C1.222,1.56590909 1.56590909,1.222 1.56590909,0.797727273 C1.56590909,0.373454545 1.222,0.0295454545 0.797727273,0.0295454545 C0.373454545,0.0295454545 0.0295454545,0.373454545 0.0295454545,0.797727273 Z" id="path-3"></path>
    </defs>
    <g id="Page-1" stroke="none" stroke-width="1" fill="none" fill-rule="evenodd">
        <g id="Desktop-HD-(Home)" transform="translate(-410.000000, -648.000000)">
            <rect id="Background" fill="#FFFFFF" x="0" y="0" width="1440" height="1024"></rect>
            <g id="Page-1" transform="translate(410.000000, 648.000000)">
                <g id="Group-8">
                    <g id="Group-3">
                        <mask id="mask-2" fill="white">
                            <use xlink:href="#path-1"></use>
                        </mask>
                        <g id="Clip-2"></g>
                        <path d="M4.16625773,1.12272727 C2.48807591,1.12272727 1.12272136,2.48802273 1.12272136,4.16626364 L1.12272136,8.83373636 C1.12272136,10.5119773 2.48807591,11.8772727 4.16625773,11.8772727 L8.83373045,11.8772727 C10.5119714,11.8772727 11.8772668,10.5119773 11.8772668,8.83373636 L11.8772668,4.16626364 C11.8772668,2.48802273 10.5119714,1.12272727 8.83373045,1.12272727 L4.16625773,1.12272727 Z M8.83373045,13 L4.16625773,13 C1.86898045,13 -5.90909258e-06,11.1310136 -5.90909258e-06,8.83373636 L-5.90909258e-06,4.16626364 C-5.90909258e-06,1.86898636 1.86898045,0 4.16625773,0 L8.83373045,0 C11.1310077,0 12.9999941,1.86898636 12.9999941,4.16626364 L12.9999941,8.83373636 C12.9999941,11.1310136 11.1310077,13 8.83373045,13 L8.83373045,13 Z" id="Fill-1" fill="#303030" mask="url(#mask-2)"></path>
                    </g>
                    <path d="M6.5,4.40227273 C5.34329545,4.40227273 4.40227273,5.34329545 4.40227273,6.5 C4.40227273,7.65670455 5.34329545,8.59772727 6.5,8.59772727 C7.65670455,8.59772727 8.59772727,7.65670455 8.59772727,6.5 C8.59772727,5.34329545 7.65670455,4.40227273 6.5,4.40227273 M6.5,9.66136364 C4.75681818,9.66136364 3.33863636,8.24318182 3.33863636,6.5 C3.33863636,4.75681818 4.75681818,3.33863636 6.5,3.33863636 C8.24318182,3.33863636 9.66136364,4.75681818 9.66136364,6.5 C9.66136364,8.24318182 8.24318182,9.66136364 6.5,9.66136364" id="Fill-4" fill="#303030"></path>
                    <path d="M9.60227273,4.10681818 C10.0265455,4.10681818 10.3704545,3.76290909 10.3704545,3.33863636 C10.3704545,2.91436364 10.0265455,2.57045455 9.60227273,2.57045455 C9.178,2.57045455 8.83409091,2.91436364 8.83409091,3.33863636 C8.83409091,3.76290909 9.178,4.10681818 9.60227273,4.10681818" id="Fill-6" fill="#303030"></path>
                </g>
                <g id="Group-11" transform="translate(8.804545, 2.540909)">
                    <mask id="mask-4" fill="white">
                        <use xlink:href="#path-3"></use>
                    </mask>
                    <g id="Clip-10"></g>
                    <polygon id="Fill-9" fill="#303030" mask="url(#mask-4)" points="-0.265909091 1.86136364 1.86136364 1.86136364 1.86136364 -0.265909091 -0.265909091 -0.265909091"></polygon>
                </g>
            </g>
        </g>
    </g>
</svg>