<?xml version="1.0" encoding="utf-8"?>
<!-- Generator: Adobe Illustrator 18.1.1, SVG Export Plug-In . SVG Version: 6.00 Build 0)  -->
<!DOCTYPE svg PUBLIC "-//W3C//DTD SVG 1.1//EN" "http://www.w3.org/Graphics/SVG/1.1/DTD/svg11.dtd">
<svg version="1.1" id="Layer_1" xmlns="http://www.w3.org/2000/svg" xmlns:xlink="http://www.w3.org/1999/xlink" x="0px" y="0px"
	 viewBox="-355 601 81 23" enable-background="new -355 601 81 23" xml:space="preserve">
<title>mivuu</title>
<desc>Created with Sketch.</desc>
<g>
	<path fill="#FFFFFF" d="M-333.9,614.8v5.4h-3v-5.5c0-1.3-0.8-2-1.7-2c-0.9,0-1.8,0.5-1.8,2.1v5.4h-3V610h3v1.5
		c0.5-1.1,1.6-1.7,2.7-1.7c1.6,0,2.7,0.6,3.3,1.8c1-1.6,2.3-1.8,3-1.8c2.4,0,3.9,1.5,3.9,4.6v5.8h-3v-5.4c0-1.3-0.8-2-1.7-2
		C-333.2,612.7-333.9,613.3-333.9,614.8z"/>
	<path fill="#FFFFFF" d="M-323.3,604.5c1,0,1.8,0.8,1.8,1.8s-0.8,1.8-1.8,1.8s-1.9-0.8-1.9-1.8S-324.4,604.5-323.3,604.5z
		 M-321.8,620.1h-3V610h3V620.1z"/>
	<path fill="#FFFFFF" d="M-320.4,610h3.2l2.4,6.3l2.3-6.3h3.2l-4.3,10.2c0,0,0,0-2.6,0L-320.4,610z"/>
	<path fill="#FFFFFF" d="M-301.2,610h3v10.2h-3v-1.4c-0.5,1-1.7,1.6-2.6,1.6c-2.3,0-4-1.4-4-4.3V610h3v5.4c0,1.6,1.1,2,1.8,2
		c0.9,0,1.8-0.5,1.8-2.1V610z"/>
	<path fill="#FFFFFF" d="M-288.9,610h3v10.2h-3v-1.4c-0.5,1-1.7,1.6-2.6,1.6c-2.3,0-4-1.4-4-4.3V610h3v5.4c0,1.6,1.1,2,1.8,2
		c0.9,0,1.8-0.5,1.8-2.1V610z"/>
</g>
</svg>
